<svg width="16" height="15" viewBox="0 0 16 15" fill="none" xmlns="http://www.w3.org/2000/svg">
<g clip-path="url(#clip0_65_500)">
<path d="M0 10.9695C0 11.6006 0.487497 12.0889 1.06972 12.0889C1.65018 12.0889 2.11737 11.5818 2.11737 10.9998V7.34786L1.95741 3.3076L3.5371 5.09334L12.8467 14.3994C13.0779 14.6289 13.3455 14.7387 13.6166 14.7387C14.1998 14.7387 14.7209 14.2078 14.7209 13.6424C14.7209 13.3695 14.5969 13.0957 14.3754 12.8725L5.07556 3.55488L3.29958 1.98945L7.50625 2.13339H10.9838C11.5658 2.13339 12.0648 1.66445 12.0648 1.09375C12.0648 0.521292 11.6041 0.0257874 10.9553 0.0257874H1.14687C0.448434 0.0257874 0.00625014 0.491995 0.00625014 1.16465L0 10.9695Z" fill="white" fill-opacity="0.85"/>
</g>
<defs>
<clipPath id="clip0_65_500">
<rect width="15.0805" height="14.7387" fill="white"/>
</clipPath>
</defs>
</svg>
