<svg width="44" height="44" viewBox="0 0 44 44" fill="none" xmlns="http://www.w3.org/2000/svg">
<g clip-path="url(#clip0_418_1535)">
<path d="M43.2258 21.6432C43.2258 33.4832 33.451 43.2581 21.6111 43.2581C9.79208 43.2581 0 33.4832 0 21.6432C0 9.82431 9.77493 0.0322189 21.5939 0.0322189C33.4337 0.0322189 43.2258 9.82431 43.2258 21.6432ZM16.4543 32.1665C16.4543 33.2768 17.3385 34.1325 18.4243 34.1325C19.531 34.1325 20.4076 33.2768 20.4076 32.1665C20.4076 31.0424 19.531 30.1792 18.4243 30.1792C17.3385 30.1792 16.4543 31.0424 16.4543 32.1665ZM25.8388 32.1665C25.8388 33.2768 26.7497 34.1325 27.8432 34.1325C28.9461 34.1325 29.8266 33.2768 29.8266 32.1665C29.8266 31.0424 28.9461 30.1792 27.8432 30.1792C26.7497 30.1792 25.8388 31.0424 25.8388 32.1665ZM9.88663 12.3047C9.17573 12.3047 8.6552 12.8215 8.6552 13.5571C8.6552 14.2718 9.17573 14.7885 9.88663 14.7885H13.0872L14.7141 26.1679C14.9689 27.8985 16.0798 28.8205 17.9954 28.8205H29.5967C30.2889 28.8205 30.7735 28.3661 30.7735 27.6172C30.7735 26.91 30.2889 26.4481 29.5967 26.4481H18.1351C17.5694 26.4481 17.179 26.107 17.1066 25.5204L17.0192 24.7083H30.065C31.7022 24.7083 32.5521 23.7346 32.7899 22.1241L33.5836 16.6577C33.6254 16.5208 33.6464 16.3325 33.6464 16.23C33.6464 15.6317 33.2396 15.1986 32.5028 15.1986H15.6078L15.4308 13.9057C15.2865 12.9399 14.5387 12.3047 13.4763 12.3047H9.88663Z" fill="white" fill-opacity="0.85"/>
</g>
<defs>
<clipPath id="clip0_418_1535">
<rect width="44" height="43.2581" fill="white"/>
</clipPath>
</defs>
</svg>
