<svg xmlns="http://www.w3.org/2000/svg" width="45" height="44" viewBox="0 0 45 44" fill="none">
<path d="M44.2082 21.9932C44.2082 34.0249 34.2113 43.9865 22.1022 43.9865C10.0146 43.9865 0 34.0249 0 21.9932C0 9.94398 9.99708 0 22.0847 0C34.1935 0 44.2082 9.94398 44.2082 21.9932ZM21.4175 13.9471L11.9686 21.8319V30.4659C11.9686 32.0492 12.9837 33.0303 14.662 33.0303H29.589C31.2558 33.0303 32.261 32.0492 32.261 30.4659V21.8493L22.8121 13.9471C22.3627 13.5639 21.8668 13.5814 21.4175 13.9471ZM25.0845 23.6794V30.682H19.1588V23.6794C19.1588 23.151 19.505 22.7967 20.0498 22.7967H24.1973C24.7674 22.7967 25.0845 23.151 25.0845 23.6794ZM20.4384 9.63564L8.70213 19.4089C8.42825 19.6661 8.2729 20.0063 8.2729 20.3214C8.2729 20.9206 8.71582 21.4545 9.44846 21.4545C9.83146 21.4545 10.1267 21.2455 10.4105 21.0096L21.554 11.712C21.9508 11.3811 22.3141 11.416 22.6971 11.712L33.8193 21.0096C34.1206 21.2455 34.4157 21.4545 34.7812 21.4545C35.4437 21.4545 35.9567 21.0117 35.9567 20.3602C35.9567 19.9714 35.8188 19.6622 35.5314 19.405L32.2919 16.7236V12.1229C32.2919 11.6332 31.9749 11.2964 31.465 11.2964H29.9775C29.4854 11.2964 29.1256 11.6332 29.1256 12.1229V14.0622L23.8303 9.63564C22.8018 8.76908 21.4492 8.76908 20.4384 9.63564Z" fill="#6611DD" fill-opacity="0.85"/>
</svg>