<svg width="44" height="44" viewBox="0 0 44 44" fill="none" xmlns="http://www.w3.org/2000/svg">
<circle cx="22" cy="22" r="22" fill="white" fill-opacity="0.85"/>
<path d="M21.9844 32C17.125 30.2188 14.4531 27.0469 13.9688 22.5C13.7969 21.1094 13.7188 19.7656 13.7188 18.4375L13.7656 15.125C17.1875 15.125 19.9219 14.0781 21.9688 12C24.0469 14.0781 26.7969 15.125 30.2031 15.125L30.2812 18.4375C30.2812 19.7656 30.1875 21.2656 30 22.9375C29.8125 24.6094 29.125 26.2812 27.9375 27.9531C26.7656 29.6406 24.7656 30.9844 21.9844 32Z" fill="#6611DD"/>
<path d="M19.9219 26.2344C19.9687 26.2344 21.9531 24.8594 25.8906 22.125C25.9531 22.0781 25.9844 22.0313 25.9844 21.9844C25.9844 21.9063 25.9531 21.8438 25.8906 21.7969C21.9688 19.0781 19.9687 17.7188 19.9219 17.7188C19.7812 17.7188 19.7188 17.7813 19.7188 17.9219V26.0313C19.7188 26.1719 19.7969 26.2344 19.9219 26.2344Z" fill="white"/>
</svg>
