<svg width="44" height="44" viewBox="0 0 44 44" fill="none" xmlns="http://www.w3.org/2000/svg">
<circle cx="22" cy="22" r="22" fill="white" fill-opacity="0.85"/>
<g clip-path="url(#clip0_436_494)">
<path d="M13 25.3379C13 26.627 14.0547 27.6816 15.3438 27.6816C16.6328 27.6816 17.6973 26.627 17.6973 25.3379C17.6973 24.0488 16.6328 22.9941 15.3438 22.9941C14.0547 22.9941 13 24.0488 13 25.3379ZM14.2012 25.3379C14.2012 24.6934 14.709 24.1953 15.3535 24.1953C15.998 24.1953 16.4961 24.6934 16.4961 25.3379C16.4961 25.9824 15.998 26.4805 15.3535 26.4805C14.709 26.4805 14.2012 25.9824 14.2012 25.3379ZM15.3535 14C14.9141 14 14.5625 14.3516 14.5625 14.791V23.7852H16.1348V14.791C16.1348 14.3516 15.793 14 15.3535 14ZM15.3535 31.1875C15.793 31.1875 16.1348 30.8359 16.1348 30.4355V27.0371H14.5625V30.4355C14.5625 30.8359 14.9141 31.1875 15.3535 31.1875ZM19.582 19.6934C19.582 20.9824 20.6465 22.0371 21.9355 22.0371C23.2246 22.0371 24.2793 20.9824 24.2793 19.6934C24.2793 18.4043 23.2246 17.3496 21.9355 17.3496C20.6465 17.3496 19.582 18.4043 19.582 19.6934ZM20.793 19.6934C20.793 19.0586 21.3008 18.5508 21.9355 18.5508C22.5801 18.5508 23.0781 19.0586 23.0781 19.6934C23.0781 20.3379 22.5801 20.8359 21.9355 20.8359C21.3008 20.8359 20.793 20.3379 20.793 19.6934ZM21.9355 14C21.4961 14 21.1543 14.3516 21.1543 14.752V18.0137H22.7266V14.752C22.7266 14.3516 22.375 14 21.9355 14ZM21.9355 31.1875C22.375 31.1875 22.7266 30.8359 22.7266 30.3965V21.2461H21.1543V30.3965C21.1543 30.8359 21.4961 31.1875 21.9355 31.1875ZM26.1836 25.3379C26.1836 26.627 27.2383 27.6816 28.5273 27.6816C29.8164 27.6816 30.8711 26.627 30.8711 25.3379C30.8711 24.0488 29.8164 22.9941 28.5273 22.9941C27.2383 22.9941 26.1836 24.0488 26.1836 25.3379ZM27.3848 25.3379C27.3848 24.6934 27.8926 24.1953 28.5273 24.1953C29.1816 24.1953 29.6699 24.6934 29.6699 25.3379C29.6699 25.9824 29.1816 26.4805 28.5273 26.4805C27.8926 26.4805 27.3848 25.9824 27.3848 25.3379ZM28.5273 14C28.0879 14 27.7363 14.3516 27.7363 14.791V23.834H29.3086V14.791C29.3086 14.3516 28.9668 14 28.5273 14ZM28.5273 31.1875C28.9668 31.1875 29.3086 30.8359 29.3086 30.4355V26.9004H27.7363V30.4355C27.7363 30.8359 28.0879 31.1875 28.5273 31.1875Z" fill="#6611DD"/>
</g>
<defs>
<clipPath id="clip0_436_494">
<rect width="18.2324" height="18.1348" fill="white" transform="translate(13 14)"/>
</clipPath>
</defs>
</svg>
