<svg width="44" height="44" viewBox="0 0 44 44" fill="none" xmlns="http://www.w3.org/2000/svg">
<g clip-path="url(#clip0_65_555)">
<path d="M43.2162 21.5217C43.2162 33.2837 33.4291 43.0222 21.6081 43.0222C9.80837 43.0222 0 33.2837 0 21.5217C0 9.78067 9.7872 0.0210724 21.5869 0.0210724C33.4078 0.0210724 43.2162 9.78067 43.2162 21.5217ZM10.338 31.1969C10.338 31.9979 10.7405 32.5671 11.6302 32.5671H31.5858C32.4757 32.5671 32.8781 31.9979 32.8781 31.1969C32.8781 28.8362 29.2769 22.6599 21.6081 22.6599C13.9393 22.6599 10.338 28.8362 10.338 31.1969ZM15.9942 14.7553C15.9942 18.2544 18.5152 20.8472 21.6081 20.8682C24.701 20.8893 27.2219 18.2544 27.2219 14.7553C27.2219 11.5091 24.701 8.81103 21.6081 8.81103C18.5152 8.81103 15.9942 11.5091 15.9942 14.7553Z" fill="#7D35E2"/>
</g>
<defs>
<clipPath id="clip0_65_555">
<rect width="44" height="43.0222" fill="white"/>
</clipPath>
</defs>
</svg>
