<svg width="44" height="44" viewBox="0 0 44 44" fill="none" xmlns="http://www.w3.org/2000/svg">
<path d="M21.3793 1.45132C25.3676 1.45132 29.2498 2.63933 32.538 4.86683C35.7414 7.03069 38.2659 10.0855 39.7721 13.6495C42.4026 19.8653 41.7026 26.9721 37.9264 32.5514C35.7626 35.7548 32.7077 38.2793 29.1437 39.7855C22.9279 42.4161 15.8211 41.716 10.2418 37.9399C7.03846 35.776 4.51396 32.7211 3.00775 29.1571C0.377182 22.9414 1.07725 15.8346 4.85339 10.2553C7.01725 7.0519 10.0721 4.5274 13.6361 3.02119C16.0757 1.98169 18.7275 1.45132 21.3793 1.45132ZM21.3793 0.178467C9.66903 0.178467 0.165039 9.68247 0.165039 21.3927C0.165039 33.103 9.66903 42.607 21.3793 42.607C33.0896 42.607 42.5936 33.103 42.5936 21.3927C42.5936 9.68247 33.0896 0.178467 21.3793 0.178467Z" fill="white" fill-opacity="0.85"/>
<path d="M3.70898 21.3924C3.70898 28.1598 7.56998 34.3544 13.6797 37.3031L5.23641 14.2009C4.21813 16.4707 3.70898 18.9104 3.70898 21.3924ZM33.3241 20.5014C33.3241 18.3164 32.5392 16.8102 31.8603 15.6222C31.1815 14.4342 30.1208 12.928 30.1208 11.4854C30.1208 10.0429 31.3512 8.34571 33.0908 8.34571H33.3241C26.1325 1.74807 14.9526 2.236 8.35491 9.44886C7.71848 10.1489 7.12448 10.8914 6.61534 11.6764H7.76091C9.60656 11.6764 12.4705 11.443 12.4705 11.443C13.4251 11.3794 13.5312 12.7795 12.5766 12.9068C12.5766 12.9068 11.6219 13.0129 10.5612 13.0765L16.9891 32.2329L20.8501 20.6287L18.0923 13.0765C17.1376 13.0129 16.2466 12.9068 16.2466 12.9068C15.292 12.8431 15.3981 11.4006 16.3527 11.443C16.3527 11.443 19.2803 11.6764 20.9986 11.6764C22.717 11.6764 25.7082 11.443 25.7082 11.443C26.6628 11.3794 26.7689 12.7795 25.8143 12.9068C25.8143 12.9068 24.8596 13.0129 23.7989 13.0765L30.1844 32.0844L32.0088 26.3142C32.815 23.7897 33.3029 22.0076 33.3029 20.4802L33.3241 20.5014ZM21.6775 22.9199L16.3739 38.3426C19.9379 39.3821 23.7353 39.2973 27.2356 38.0669L27.1083 37.8335L21.6775 22.9199ZM36.8881 12.9068C36.973 13.5008 37.0154 14.116 37.0154 14.7312C37.0154 16.5344 36.676 18.5497 35.6789 21.053L30.2693 36.6667C38.5428 31.8511 41.4916 21.3076 36.8881 12.9068Z" fill="white" fill-opacity="0.85"/>
</svg>
