<svg width="44" height="44" viewBox="0 0 44 44" fill="none" xmlns="http://www.w3.org/2000/svg">
<path d="M21.3798 1.45126C25.3681 1.45126 29.2503 2.63927 32.5385 4.86677C35.7418 7.03063 38.2663 10.0855 39.7726 13.6495C42.4031 19.8652 41.7031 26.972 37.9269 32.5514C35.7631 35.7547 32.7082 38.2792 29.1442 39.7854C22.9284 42.416 15.8216 41.7159 10.2423 37.9398C7.03895 35.7759 4.51445 32.7211 3.00823 29.1571C0.37767 22.9413 1.07774 15.8345 4.85388 10.2552C7.01773 7.05184 10.0726 4.52734 13.6366 3.02113C16.0762 1.98163 18.728 1.45126 21.3798 1.45126ZM21.3798 0.178406C9.66952 0.178406 0.165527 9.68241 0.165527 21.3927C0.165527 33.1029 9.66952 42.6069 21.3798 42.6069C33.0901 42.6069 42.5941 33.1029 42.5941 21.3927C42.5941 9.68241 33.0901 0.178406 21.3798 0.178406Z" fill="#510EB1" fill-opacity="0.85"/>
<path d="M3.70898 21.3923C3.70898 28.1597 7.56998 34.3542 13.6797 37.303L5.23641 14.2007C4.21813 16.4706 3.70898 18.9102 3.70898 21.3923ZM33.3241 20.5013C33.3241 18.3162 32.5392 16.81 31.8603 15.6221C31.1815 14.4341 30.1208 12.9279 30.1208 11.4853C30.1208 10.0427 31.3512 8.34559 33.0908 8.34559H33.3241C26.1325 1.74795 14.9526 2.23588 8.35491 9.44873C7.71848 10.1488 7.12448 10.8913 6.61534 11.6762H7.76091C9.60656 11.6762 12.4705 11.4429 12.4705 11.4429C13.4251 11.3792 13.5312 12.7794 12.5766 12.9067C12.5766 12.9067 11.6219 13.0127 10.5612 13.0764L16.9891 32.2328L20.8501 20.6286L18.0923 13.0764C17.1376 13.0127 16.2466 12.9067 16.2466 12.9067C15.292 12.843 15.3981 11.4004 16.3527 11.4429C16.3527 11.4429 19.2803 11.6762 20.9986 11.6762C22.717 11.6762 25.7082 11.4429 25.7082 11.4429C26.6628 11.3792 26.7689 12.7794 25.8143 12.9067C25.8143 12.9067 24.8596 13.0127 23.7989 13.0764L30.1844 32.0843L32.0088 26.314C32.815 23.7895 33.3029 22.0075 33.3029 20.4801L33.3241 20.5013ZM21.6775 22.9197L16.3739 38.3425C19.9379 39.382 23.7353 39.2972 27.2356 38.0667L27.1083 37.8334L21.6775 22.9197ZM36.8881 12.9067C36.973 13.5007 37.0154 14.1159 37.0154 14.7311C37.0154 16.5342 36.676 18.5496 35.6789 21.0529L30.2693 36.6666C38.5428 31.851 41.4916 21.3075 36.8881 12.9067Z" fill="#510EB1" fill-opacity="0.85"/>
</svg>
