<svg width="69" height="69" viewBox="0 0 69 69" fill="none" xmlns="http://www.w3.org/2000/svg">
<path d="M34.4461 69C17.6812 62.8547 8.46328 51.9117 6.79219 36.225C6.19922 31.4273 5.92969 26.7914 5.92969 22.2094L6.09141 10.7812C17.8969 10.7812 27.3305 7.16953 34.3922 0C41.5617 7.16953 51.0492 10.7812 62.8008 10.7812L63.0703 22.2094C63.0703 26.7914 62.7469 31.9664 62.1 37.7344C61.4531 43.5023 59.0812 49.2703 54.9844 55.0383C50.9414 60.8602 44.0414 65.4961 34.4461 69Z" fill="#6611DD"/>
<path d="M27.3307 49.1086C27.4924 49.1086 34.3385 44.3648 47.9229 34.9312C48.1385 34.7695 48.2463 34.6078 48.2463 34.4461C48.2463 34.1766 48.1385 33.9609 47.9229 33.7992C34.3924 24.4195 27.4924 19.7297 27.3307 19.7297C26.8455 19.7297 26.6299 19.9453 26.6299 20.4305V48.4078C26.6299 48.893 26.8994 49.1086 27.3307 49.1086Z" fill="white"/>
</svg>
