<svg width="314" height="70" viewBox="0 0 314 70" fill="none" xmlns="http://www.w3.org/2000/svg">
<path d="M34.4461 70C17.6812 63.8547 8.46328 52.9117 6.79219 37.225C6.19922 32.4273 5.92969 27.7914 5.92969 23.2094L6.09141 11.7812C17.8969 11.7812 27.3305 8.16953 34.3922 1C41.5617 8.16953 51.0492 11.7812 62.8008 11.7812L63.0703 23.2094C63.0703 27.7914 62.7469 32.9664 62.1 38.7344C61.4531 44.5023 59.0812 50.2703 54.9844 56.0383C50.9414 61.8602 44.0414 66.4961 34.4461 70Z" fill="#6611DD"/>
<path d="M27.3307 50.1086C27.4924 50.1086 34.3385 45.3648 47.9229 35.9312C48.1385 35.7695 48.2463 35.6078 48.2463 35.4461C48.2463 35.1766 48.1385 34.9609 47.9229 34.7992C34.3924 25.4195 27.4924 20.7297 27.3307 20.7297C26.8455 20.7297 26.6299 20.9453 26.6299 21.4305V49.4078C26.6299 49.893 26.8994 50.1086 27.3307 50.1086Z" fill="white"/>
<path d="M94.8164 38.5469C91.7305 38.5469 89.0742 38.2214 86.8477 37.5703C84.6341 36.9062 82.8893 35.9362 81.6133 34.6602C80.3372 33.3841 79.5755 31.8346 79.3281 30.0117L79.2891 29.7578H85.5586L85.5977 29.9531C85.819 30.7734 86.3138 31.4701 87.082 32.043C87.8633 32.6029 88.9115 33.0326 90.2266 33.332C91.5547 33.6185 93.1562 33.7617 95.0312 33.7617C96.6198 33.7617 97.974 33.612 99.0938 33.3125C100.227 33 101.092 32.5508 101.691 31.9648C102.303 31.3789 102.609 30.6888 102.609 29.8945V29.875C102.609 28.8464 102.193 28.0846 101.359 27.5898C100.526 27.082 99.0872 26.7109 97.043 26.4766L90.168 25.9102C86.7305 25.5716 84.1719 24.7513 82.4922 23.4492C80.8125 22.1471 79.9727 20.3372 79.9727 18.0195V18C79.9727 16.2031 80.526 14.6536 81.6328 13.3516C82.7526 12.0495 84.3411 11.0469 86.3984 10.3438C88.4557 9.6276 90.8971 9.26953 93.7227 9.26953C96.6133 9.26953 99.1068 9.60156 101.203 10.2656C103.299 10.9297 104.953 11.8997 106.164 13.1758C107.388 14.4388 108.13 15.9622 108.391 17.7461L108.43 18.0391H102.18L102.121 17.8438C101.887 16.9974 101.424 16.2943 100.734 15.7344C100.057 15.1745 99.1328 14.7578 97.9609 14.4844C96.8021 14.1979 95.3893 14.0547 93.7227 14.0547C92.1471 14.0547 90.8125 14.2044 89.7188 14.5039C88.638 14.7904 87.8177 15.207 87.2578 15.7539C86.6979 16.2878 86.418 16.9258 86.418 17.668V17.6875C86.418 18.651 86.8411 19.3867 87.6875 19.8945C88.5469 20.4023 89.9401 20.7604 91.8672 20.9688L98.8203 21.5352C101.164 21.7826 103.085 22.2253 104.582 22.8633C106.092 23.5013 107.212 24.3672 107.941 25.4609C108.684 26.5417 109.055 27.8698 109.055 29.4453V29.4648C109.055 31.3659 108.495 33 107.375 34.3672C106.255 35.7214 104.634 36.7565 102.512 37.4727C100.389 38.1888 97.8242 38.5469 94.8164 38.5469ZM112.258 44.8359V17.1992H118.488V21.0664H118.586C119.12 20.194 119.816 19.4323 120.676 18.7812C121.548 18.1302 122.57 17.6224 123.742 17.2578C124.914 16.8932 126.229 16.7109 127.688 16.7109C129.953 16.7109 131.919 17.1667 133.586 18.0781C135.253 18.9896 136.542 20.2591 137.453 21.8867C138.365 23.5143 138.82 25.4154 138.82 27.5898V27.6094C138.82 29.7708 138.365 31.6719 137.453 33.3125C136.542 34.9401 135.253 36.2096 133.586 37.1211C131.919 38.0326 129.96 38.4883 127.707 38.4883C126.249 38.4883 124.927 38.3125 123.742 37.9609C122.57 37.5964 121.548 37.0885 120.676 36.4375C119.816 35.7865 119.12 35.0312 118.586 34.1719H118.488V44.8359H112.258ZM125.539 33.8984C126.984 33.8984 128.228 33.6445 129.27 33.1367C130.311 32.6289 131.105 31.9062 131.652 30.9688C132.212 30.0312 132.492 28.9115 132.492 27.6094V27.5703C132.492 26.2682 132.212 25.1484 131.652 24.2109C131.105 23.2734 130.311 22.5573 129.27 22.0625C128.228 21.5547 126.984 21.3008 125.539 21.3008C124.12 21.3008 122.876 21.5612 121.809 22.082C120.754 22.5898 119.934 23.319 119.348 24.2695C118.762 25.207 118.469 26.3138 118.469 27.5898V27.6094C118.469 28.8854 118.762 29.9987 119.348 30.9492C119.934 31.8867 120.754 32.6159 121.809 33.1367C122.863 33.6445 124.107 33.8984 125.539 33.8984ZM154.27 38.4883C151.613 38.4883 149.296 38.0456 147.316 37.1602C145.337 36.2747 143.801 35.0182 142.707 33.3906C141.613 31.763 141.066 29.8359 141.066 27.6094V27.5703C141.066 25.3438 141.613 23.4167 142.707 21.7891C143.814 20.1615 145.357 18.9049 147.336 18.0195C149.315 17.1341 151.626 16.6914 154.27 16.6914C156.926 16.6914 159.243 17.1341 161.223 18.0195C163.202 18.9049 164.738 20.1615 165.832 21.7891C166.939 23.4167 167.492 25.3438 167.492 27.5703V27.6094C167.492 29.849 166.939 31.7826 165.832 33.4102C164.738 35.0247 163.202 36.2747 161.223 37.1602C159.243 38.0456 156.926 38.4883 154.27 38.4883ZM154.289 33.9766C155.643 33.9766 156.835 33.7292 157.863 33.2344C158.905 32.7266 159.712 32.0039 160.285 31.0664C160.858 30.1159 161.145 28.9635 161.145 27.6094V27.5703C161.145 26.2292 160.858 25.0833 160.285 24.1328C159.712 23.1823 158.905 22.4596 157.863 21.9648C156.835 21.4701 155.637 21.2227 154.27 21.2227C152.915 21.2227 151.717 21.4766 150.676 21.9844C149.647 22.4792 148.84 23.2018 148.254 24.1523C147.681 25.0898 147.395 26.2292 147.395 27.5703V27.6094C147.395 28.9635 147.681 30.1159 148.254 31.0664C148.84 32.0039 149.647 32.7266 150.676 33.2344C151.717 33.7292 152.922 33.9766 154.289 33.9766ZM182.043 38.332C179.009 38.332 176.783 37.7656 175.363 36.6328C173.957 35.5 173.254 33.6836 173.254 31.1836V21.5352H168.977V17.1992H173.254V12.0039H179.484V17.1992H185.969V21.5352H179.484V30.4414C179.484 31.7305 179.81 32.6419 180.461 33.1758C181.112 33.6966 182.18 33.957 183.664 33.957C184.094 33.957 184.51 33.944 184.914 33.918C185.318 33.8789 185.669 33.8333 185.969 33.7812V38.0195C185.435 38.1107 184.829 38.1823 184.152 38.2344C183.475 38.2995 182.772 38.332 182.043 38.332ZM204.113 38.5469C201.027 38.5469 198.371 38.2214 196.145 37.5703C193.931 36.9062 192.186 35.9362 190.91 34.6602C189.634 33.3841 188.872 31.8346 188.625 30.0117L188.586 29.7578H194.855L194.895 29.9531C195.116 30.7734 195.611 31.4701 196.379 32.043C197.16 32.6029 198.208 33.0326 199.523 33.332C200.852 33.6185 202.453 33.7617 204.328 33.7617C205.917 33.7617 207.271 33.612 208.391 33.3125C209.523 33 210.389 32.5508 210.988 31.9648C211.6 31.3789 211.906 30.6888 211.906 29.8945V29.875C211.906 28.8464 211.49 28.0846 210.656 27.5898C209.823 27.082 208.384 26.7109 206.34 26.4766L199.465 25.9102C196.027 25.5716 193.469 24.7513 191.789 23.4492C190.109 22.1471 189.27 20.3372 189.27 18.0195V18C189.27 16.2031 189.823 14.6536 190.93 13.3516C192.049 12.0495 193.638 11.0469 195.695 10.3438C197.753 9.6276 200.194 9.26953 203.02 9.26953C205.91 9.26953 208.404 9.60156 210.5 10.2656C212.596 10.9297 214.25 11.8997 215.461 13.1758C216.685 14.4388 217.427 15.9622 217.688 17.7461L217.727 18.0391H211.477L211.418 17.8438C211.184 16.9974 210.721 16.2943 210.031 15.7344C209.354 15.1745 208.43 14.7578 207.258 14.4844C206.099 14.1979 204.686 14.0547 203.02 14.0547C201.444 14.0547 200.109 14.2044 199.016 14.5039C197.935 14.7904 197.115 15.207 196.555 15.7539C195.995 16.2878 195.715 16.9258 195.715 17.668V17.6875C195.715 18.651 196.138 19.3867 196.984 19.8945C197.844 20.4023 199.237 20.7604 201.164 20.9688L208.117 21.5352C210.461 21.7826 212.382 22.2253 213.879 22.8633C215.389 23.5013 216.509 24.3672 217.238 25.4609C217.98 26.5417 218.352 27.8698 218.352 29.4453V29.4648C218.352 31.3659 217.792 33 216.672 34.3672C215.552 35.7214 213.931 36.7565 211.809 37.4727C209.686 38.1888 207.121 38.5469 204.113 38.5469ZM233.938 38.4883C231.203 38.4883 228.853 38.0651 226.887 37.2188C224.921 36.3594 223.404 35.1224 222.336 33.5078C221.281 31.8932 220.754 29.9466 220.754 27.668V27.6484C220.754 25.4089 221.294 23.4688 222.375 21.8281C223.456 20.1875 224.96 18.9245 226.887 18.0391C228.827 17.1406 231.079 16.6979 233.645 16.7109C236.275 16.724 238.534 17.1862 240.422 18.0977C242.323 19.0091 243.781 20.2917 244.797 21.9453C245.826 23.599 246.34 25.5326 246.34 27.7461V28.9766H223.938V25.5195H242.375L240.461 28.1172V26.8672C240.461 25.6432 240.194 24.5885 239.66 23.7031C239.126 22.8177 238.358 22.1341 237.355 21.6523C236.353 21.1706 235.155 20.9297 233.762 20.9297C232.303 20.9297 231.053 21.1641 230.012 21.6328C228.97 22.1016 228.169 22.7982 227.609 23.7227C227.062 24.6341 226.789 25.7604 226.789 27.1016V28.0586C226.789 29.556 227.108 30.7604 227.746 31.6719C228.397 32.5833 229.27 33.2474 230.363 33.6641C231.47 34.0807 232.72 34.2891 234.113 34.2891C235.051 34.2891 235.917 34.1849 236.711 33.9766C237.518 33.7682 238.215 33.4753 238.801 33.0977C239.387 32.707 239.823 32.2448 240.109 31.7109L240.188 31.5938H246.027L245.969 31.7891C245.656 32.8438 245.142 33.7878 244.426 34.6211C243.723 35.4414 242.844 36.1445 241.789 36.7305C240.747 37.3034 239.562 37.7396 238.234 38.0391C236.906 38.3385 235.474 38.4883 233.938 38.4883ZM249.523 38V9.81641H255.754V38H249.523ZM259.914 38V9.81641H266.145V38H259.914ZM282.531 38.4883C279.797 38.4883 277.447 38.0651 275.48 37.2188C273.514 36.3594 271.997 35.1224 270.93 33.5078C269.875 31.8932 269.348 29.9466 269.348 27.668V27.6484C269.348 25.4089 269.888 23.4688 270.969 21.8281C272.049 20.1875 273.553 18.9245 275.48 18.0391C277.421 17.1406 279.673 16.6979 282.238 16.7109C284.868 16.724 287.128 17.1862 289.016 18.0977C290.917 19.0091 292.375 20.2917 293.391 21.9453C294.419 23.599 294.934 25.5326 294.934 27.7461V28.9766H272.531V25.5195H290.969L289.055 28.1172V26.8672C289.055 25.6432 288.788 24.5885 288.254 23.7031C287.72 22.8177 286.952 22.1341 285.949 21.6523C284.947 21.1706 283.749 20.9297 282.355 20.9297C280.897 20.9297 279.647 21.1641 278.605 21.6328C277.564 22.1016 276.763 22.7982 276.203 23.7227C275.656 24.6341 275.383 25.7604 275.383 27.1016V28.0586C275.383 29.556 275.702 30.7604 276.34 31.6719C276.991 32.5833 277.863 33.2474 278.957 33.6641C280.064 34.0807 281.314 34.2891 282.707 34.2891C283.645 34.2891 284.51 34.1849 285.305 33.9766C286.112 33.7682 286.809 33.4753 287.395 33.0977C287.98 32.707 288.417 32.2448 288.703 31.7109L288.781 31.5938H294.621L294.562 31.7891C294.25 32.8438 293.736 33.7878 293.02 34.6211C292.316 35.4414 291.438 36.1445 290.383 36.7305C289.341 37.3034 288.156 37.7396 286.828 38.0391C285.5 38.3385 284.068 38.4883 282.531 38.4883ZM297.961 38V17.1992L304.191 17.2188V21.418H304.309C304.738 19.9466 305.526 18.8073 306.672 18C307.818 17.1797 309.23 16.7695 310.91 16.7695C311.301 16.7695 311.672 16.7956 312.023 16.8477C312.388 16.8867 312.707 16.9388 312.98 17.0039V22.043C312.642 21.9648 312.251 21.9062 311.809 21.8672C311.379 21.8281 310.936 21.8086 310.48 21.8086C309.204 21.8086 308.091 22.043 307.141 22.5117C306.203 22.9805 305.474 23.6836 304.953 24.6211C304.445 25.5456 304.191 26.6979 304.191 28.0781V38H297.961Z" fill="#5B0CCA"/>
<path d="M85.5498 65.1846C84.8291 65.1846 84.1729 65.0879 83.5811 64.8945C82.9893 64.7012 82.4766 64.4287 82.043 64.0771C81.6094 63.7256 81.2725 63.3125 81.0322 62.8379H80.9707V65H79.6699V51.8604H80.9707V57.6787H81.0322C81.2725 57.2158 81.6064 56.8086 82.0342 56.457C82.4678 56.1055 82.9834 55.833 83.5811 55.6396C84.1787 55.4463 84.835 55.3496 85.5498 55.3496C86.6221 55.3496 87.5479 55.5605 88.3271 55.9824C89.1123 56.3984 89.7158 56.9756 90.1377 57.7139C90.5654 58.4463 90.7793 59.293 90.7793 60.2539V60.2715C90.7793 61.2324 90.5654 62.082 90.1377 62.8203C89.7158 63.5586 89.1123 64.1387 88.3271 64.5605C87.5479 64.9766 86.6221 65.1846 85.5498 65.1846ZM85.2246 64.0859C86.0977 64.0859 86.8477 63.9307 87.4746 63.6201C88.1074 63.3096 88.5938 62.8701 88.9336 62.3018C89.2793 61.7275 89.4521 61.0508 89.4521 60.2715V60.2539C89.4521 59.4746 89.2793 58.8008 88.9336 58.2324C88.5938 57.6582 88.1074 57.2188 87.4746 56.9141C86.8477 56.6035 86.0977 56.4482 85.2246 56.4482C84.3633 56.4482 83.6133 56.6094 82.9746 56.9316C82.3418 57.248 81.8496 57.6934 81.498 58.2676C81.1465 58.8359 80.9707 59.498 80.9707 60.2539V60.2715C80.9707 61.0273 81.1465 61.6924 81.498 62.2666C81.8496 62.8408 82.3447 63.2891 82.9834 63.6113C83.6221 63.9277 84.3691 64.0859 85.2246 64.0859ZM94.4004 68.2168C94.2363 68.2168 94.0693 68.208 93.8994 68.1904C93.7354 68.1787 93.583 68.1582 93.4424 68.1289V67.0654C93.5654 67.0889 93.7031 67.1064 93.8555 67.1182C94.0078 67.1357 94.1602 67.1445 94.3125 67.1445C94.8574 67.1445 95.3145 67.0332 95.6836 66.8105C96.0586 66.5938 96.3955 66.2041 96.6943 65.6416L96.9756 65.0967L92.1768 55.5342H93.583L97.8721 64.2617L97.4238 63.8223H98.0303L97.5732 64.2617L101.739 55.5342H103.137L98.2588 65.4482C97.9072 66.1455 97.5527 66.6963 97.1953 67.1006C96.8438 67.5049 96.4453 67.792 96 67.9619C95.5605 68.1318 95.0273 68.2168 94.4004 68.2168ZM110.396 68.1641V55.5342H111.697V57.6963H111.75C111.99 57.2275 112.327 56.8174 112.761 56.4658C113.194 56.1084 113.707 55.833 114.299 55.6396C114.896 55.4404 115.556 55.3408 116.276 55.3408C117.349 55.3408 118.274 55.5518 119.054 55.9736C119.839 56.3955 120.442 56.9756 120.864 57.7139C121.292 58.4521 121.506 59.2988 121.506 60.2539V60.2715C121.506 61.2324 121.292 62.082 120.864 62.8203C120.442 63.5586 119.839 64.1387 119.054 64.5605C118.274 64.9766 117.349 65.1846 116.276 65.1846C115.556 65.1846 114.896 65.0879 114.299 64.8945C113.707 64.6953 113.194 64.4229 112.761 64.0771C112.327 63.7256 111.99 63.3184 111.75 62.8555H111.697V68.1641H110.396ZM115.96 64.0859C116.821 64.0859 117.568 63.9307 118.201 63.6201C118.834 63.3096 119.32 62.8701 119.66 62.3018C120.006 61.7275 120.179 61.0537 120.179 60.2803V60.2539C120.179 59.4746 120.006 58.8008 119.66 58.2324C119.32 57.6641 118.834 57.2246 118.201 56.9141C117.568 56.6035 116.821 56.4482 115.96 56.4482C115.093 56.4482 114.34 56.6094 113.701 56.9316C113.062 57.248 112.567 57.6934 112.216 58.2676C111.864 58.8359 111.688 59.498 111.688 60.2539V60.2803C111.688 61.0303 111.864 61.6924 112.216 62.2666C112.567 62.8408 113.062 63.2891 113.701 63.6113C114.34 63.9277 115.093 64.0859 115.96 64.0859ZM124.143 65V55.5342H125.443V65H124.143ZM124.802 53.7676C124.556 53.7676 124.348 53.6855 124.178 53.5215C124.014 53.3574 123.932 53.1582 123.932 52.9238C123.932 52.6895 124.014 52.4902 124.178 52.3262C124.348 52.1621 124.556 52.0801 124.802 52.0801C125.048 52.0801 125.253 52.1621 125.417 52.3262C125.581 52.4902 125.663 52.6895 125.663 52.9238C125.663 53.1582 125.581 53.3574 125.417 53.5215C125.253 53.6855 125.048 53.7676 124.802 53.7676ZM127.693 65L132.167 60.2275L127.711 55.5342H129.337L132.993 59.3926H133.046L136.676 55.5342H138.275L133.819 60.1924L138.258 65H136.632L133.002 61.0273H132.94L129.293 65H127.693ZM145.254 65.1934C144.094 65.1934 143.101 64.9971 142.274 64.6045C141.448 64.2119 140.812 63.6494 140.367 62.917C139.922 62.1846 139.699 61.3057 139.699 60.2803V60.2715C139.699 59.2695 139.925 58.4023 140.376 57.6699C140.827 56.9316 141.46 56.3604 142.274 55.9561C143.095 55.5459 144.047 55.3438 145.131 55.3496C146.227 55.3555 147.173 55.5605 147.97 55.9648C148.767 56.3691 149.379 56.9346 149.807 57.6611C150.234 58.3877 150.448 59.2373 150.448 60.21V60.5879L140.358 60.5791V59.6035H149.675L149.165 60.4121V60.0254C149.165 59.293 149.001 58.6602 148.673 58.127C148.345 57.5879 147.879 57.1719 147.275 56.8789C146.672 56.5801 145.957 56.4307 145.131 56.4307C144.281 56.4307 143.546 56.5771 142.925 56.8701C142.31 57.1631 141.835 57.585 141.501 58.1357C141.167 58.6865 141 59.3545 141 60.1396V60.3594C141 61.2148 141.185 61.918 141.554 62.4688C141.929 63.0195 142.438 63.4297 143.083 63.6992C143.728 63.9688 144.46 64.1035 145.28 64.1035C145.866 64.1035 146.402 64.0391 146.889 63.9102C147.381 63.7812 147.803 63.5967 148.154 63.3564C148.512 63.1104 148.778 62.8115 148.954 62.46L148.98 62.3984H150.299L150.264 62.4688C150.105 62.9082 149.871 63.2979 149.561 63.6377C149.25 63.9717 148.875 64.2559 148.436 64.4902C148.002 64.7188 147.516 64.8916 146.977 65.0088C146.443 65.1318 145.869 65.1934 145.254 65.1934ZM153.226 65V51.8516H154.526V65H153.226ZM162.34 65.1934C161.344 65.1934 160.482 65.085 159.756 64.8682C159.035 64.6514 158.461 64.3379 158.033 63.9277C157.611 63.5117 157.351 63.0107 157.251 62.4248V62.3809H158.552L158.569 62.4248C158.722 62.9814 159.12 63.4121 159.765 63.7168C160.415 64.0156 161.285 64.165 162.375 64.165C163.055 64.165 163.635 64.0947 164.115 63.9541C164.602 63.8076 164.977 63.6025 165.24 63.3389C165.504 63.0693 165.636 62.7559 165.636 62.3984V62.3809C165.636 61.9238 165.454 61.5781 165.091 61.3438C164.733 61.1094 164.127 60.9424 163.271 60.8428L160.802 60.6055C160.081 60.5176 159.483 60.3711 159.009 60.166C158.534 59.9609 158.18 59.6914 157.945 59.3574C157.711 59.0176 157.594 58.6133 157.594 58.1445V58.127C157.594 57.5645 157.772 57.0752 158.13 56.6592C158.487 56.2432 158.994 55.9209 159.65 55.6924C160.307 55.4639 161.08 55.3496 161.971 55.3496C162.896 55.3496 163.696 55.4551 164.37 55.666C165.05 55.877 165.589 56.1846 165.987 56.5889C166.386 56.9932 166.632 57.4766 166.726 58.0391L166.734 58.127H165.486L165.469 58.0654C165.352 57.5439 164.985 57.1309 164.37 56.8262C163.755 56.5215 162.958 56.3691 161.979 56.3691C161.341 56.3691 160.79 56.4395 160.327 56.5801C159.87 56.7207 159.519 56.917 159.272 57.1689C159.032 57.4209 158.912 57.7227 158.912 58.0742V58.083C158.912 58.3643 158.988 58.6016 159.141 58.7949C159.299 58.9883 159.545 59.1465 159.879 59.2695C160.219 59.3867 160.655 59.4775 161.188 59.542L163.667 59.7881C164.815 59.917 165.65 60.1807 166.172 60.5791C166.693 60.9717 166.954 61.5459 166.954 62.3018V62.3105C166.954 62.9023 166.767 63.415 166.392 63.8486C166.022 64.2764 165.492 64.6074 164.801 64.8418C164.109 65.0762 163.289 65.1934 162.34 65.1934Z" fill="#5B0CCA"/>
</svg>
