<svg width="30" height="32" viewBox="0 0 30 32" fill="none" xmlns="http://www.w3.org/2000/svg">
<g clip-path="url(#clip0_150_52)">
<path d="M4.11995 31.1434H25.2579C28.0494 31.1434 29.3777 30.3027 29.3777 28.4528C29.3777 24.047 23.8116 17.6738 14.6973 17.6738C5.56613 17.6738 0 24.047 0 28.4528C0 30.3027 1.32847 31.1434 4.11995 31.1434ZM3.32959 28.6042C2.89238 28.6042 2.7074 28.4866 2.7074 28.1334C2.7074 25.3588 6.97868 20.213 14.6973 20.213C22.399 20.213 26.6704 25.3588 26.6704 28.1334C26.6704 28.4866 26.5022 28.6042 26.065 28.6042H3.32959ZM14.6973 15.5717C18.6996 15.5717 21.9618 12.0235 21.9618 7.68497C21.9618 3.38004 18.7163 0 14.6973 0C10.7119 0 7.43273 3.4473 7.43273 7.7186C7.43273 12.0403 10.6951 15.5717 14.6973 15.5717ZM14.6973 13.0325C12.2421 13.0325 10.1401 10.6951 10.1401 7.7186C10.1401 4.79259 12.2085 2.53924 14.6973 2.53924C17.2029 2.53924 19.2544 4.74215 19.2544 7.68497C19.2544 10.6614 17.1693 13.0325 14.6973 13.0325Z" fill="white" fill-opacity="0.85"/>
</g>
<defs>
<clipPath id="clip0_150_52">
<rect width="30" height="31.1603" fill="white"/>
</clipPath>
</defs>
</svg>
