<svg width="40" height="36" viewBox="0 0 40 36" fill="none" xmlns="http://www.w3.org/2000/svg">
<g clip-path="url(#clip0_65_600)">
<path d="M13.5726 27.0619H33.0551C33.7062 27.0619 34.2738 26.5276 34.2738 25.8098C34.2738 25.0918 33.7062 24.5576 33.0551 24.5576H13.8565C12.9049 24.5576 12.3206 23.8898 12.1703 22.8715L9.43241 4.2905C9.26545 3.00501 8.798 2.35393 7.09517 2.35393H1.23539C0.567613 2.35393 0 2.93824 0 3.60603C0 4.2905 0.567613 4.8748 1.23539 4.8748H6.87815L9.54927 23.2054C9.89986 25.5759 11.1519 27.0619 13.5726 27.0619ZM10.5009 21.1185H33.0886C35.5258 21.1185 36.7781 19.6161 37.1287 17.2287L38.4642 8.39735C38.4975 8.18033 38.531 7.91321 38.531 7.76296C38.531 6.96163 37.9299 6.4107 37.0118 6.4107H9.04843L9.06512 8.93157H35.6929L34.5075 16.9282C34.374 17.9633 33.8232 18.6144 32.8381 18.6144H10.4675L10.5009 21.1185ZM14.8915 35.1754C16.394 35.1754 17.5961 33.99 17.5961 32.4708C17.5961 30.9683 16.394 29.7663 14.8915 29.7663C13.3723 29.7663 12.1703 30.9683 12.1703 32.4708C12.1703 33.99 13.3723 35.1754 14.8915 35.1754ZM30.5009 35.1754C32.0201 35.1754 33.2221 33.99 33.2221 32.4708C33.2221 30.9683 32.0201 29.7663 30.5009 29.7663C28.9984 29.7663 27.7797 30.9683 27.7797 32.4708C27.7797 33.99 28.9984 35.1754 30.5009 35.1754Z" fill="white" fill-opacity="0.85"/>
</g>
<defs>
<clipPath id="clip0_65_600">
<rect width="40" height="35.1754" fill="white"/>
</clipPath>
</defs>
</svg>
