<svg width="38" height="38" viewBox="0 0 38 38" fill="none" xmlns="http://www.w3.org/2000/svg">
<g clip-path="url(#clip0_150_61)">
<path d="M37.3231 19.4811C37.3231 29.5939 28.8706 38 18.6615 38C8.47087 38 0 29.5939 0 19.4811C0 9.3502 8.45258 0.96225 18.6432 0.96225C28.8522 0.96225 37.3231 9.3502 37.3231 19.4811ZM25.6139 9.69514L7.48291 16.5943C6.60472 16.903 5.92778 17.4476 5.92778 18.2102C5.92778 19.1542 6.64131 19.481 7.66587 19.7897L13.3741 21.4964C14.051 21.696 14.4169 21.696 14.8743 21.2967L26.4006 10.5666C26.5469 10.4395 26.6932 10.4759 26.803 10.5485C26.9312 10.6574 26.9312 10.8208 26.803 10.9661L16.0636 22.4587C15.6428 22.8762 15.6062 23.2211 15.7891 23.9475L17.4906 29.4485C17.8199 30.5015 18.1127 31.2641 19.0822 31.2641C19.8507 31.2641 20.3997 30.6469 20.7839 29.6483L27.6813 11.7467C27.8641 11.2565 27.9558 10.8571 27.9558 10.494C27.9558 9.82223 27.5532 9.40465 26.8763 9.40465C26.5104 9.40465 26.1078 9.5136 25.6139 9.69514Z" fill="white" fill-opacity="0.85"/>
</g>
<defs>
<clipPath id="clip0_150_61">
<rect width="38" height="38" fill="white"/>
</clipPath>
</defs>
</svg>
