<svg width="30" height="30" viewBox="0 0 30 30" fill="none" xmlns="http://www.w3.org/2000/svg">
<g clip-path="url(#clip0_150_43)">
<path d="M5.42078 30C6.12707 30 6.72742 29.7169 7.43373 29.3098L28.0222 17.3806C29.4879 16.5133 29.9999 15.9469 29.9999 15.0089C29.9999 14.0708 29.4879 13.5045 28.0222 12.6549L7.43373 0.707968C6.72742 0.300888 6.12707 0.0354004 5.42078 0.0354004C4.11412 0.0354004 3.30188 1.02655 3.30188 2.56639V27.4514C3.30188 28.9912 4.11412 30 5.42078 30ZM6.3213 26.6195C6.21536 26.6195 6.14474 26.5487 6.14474 26.4071V3.61063C6.14474 3.46903 6.21536 3.39824 6.3213 3.39824C6.39194 3.39824 6.46257 3.43364 6.53319 3.48674L26.0799 14.8142C26.1683 14.8673 26.2389 14.9204 26.2389 15.0089C26.2389 15.0974 26.1683 15.1682 26.0799 15.2036L6.53319 26.5487C6.46257 26.5842 6.39194 26.6195 6.3213 26.6195Z" fill="white" fill-opacity="0.85"/>
</g>
<defs>
<clipPath id="clip0_150_43">
<rect width="30" height="30" fill="white"/>
</clipPath>
</defs>
</svg>
